<svg width="107" height="107" viewBox="0 0 107 107" fill="none" xmlns="http://www.w3.org/2000/svg">
<path d="M83.1725 71.8587C82.6866 71.0853 82.0514 70.4164 81.304 69.8913C80.5567 69.3662 79.7121 68.9953 78.8198 68.8003C75.4057 68.0063 72.4447 65.8932 70.5838 62.9227C68.723 59.9521 68.1136 56.3658 68.8888 52.9474C69.1868 51.6262 69.0878 50.2464 68.6042 48.9812C68.1206 47.716 67.274 46.622 66.1707 45.8364C65.0672 45.0509 63.7564 44.609 62.4025 44.566C61.0488 44.523 59.7126 44.881 58.5616 45.595C57.4107 46.309 56.4964 47.3471 55.9335 48.5791C55.3707 49.8111 55.1843 51.1818 55.398 52.5193C55.6116 53.8568 56.2158 55.1013 57.1344 56.0966C58.053 57.0918 59.2453 57.7935 60.5614 58.1134C62.2641 58.4974 63.8742 59.2138 65.2995 60.2213C66.7247 61.2288 67.9371 62.5077 68.8672 63.9847C69.7972 65.4617 70.4266 67.1078 70.7192 68.8284C71.012 70.5491 70.9621 72.3107 70.5727 74.0121C70.3421 75.109 70.3832 76.2455 70.6925 77.3228C71.0018 78.4 71.5699 79.3853 72.3473 80.1928C73.1246 81.0002 74.0875 81.6052 75.1523 81.9552C76.2171 82.3052 77.3512 82.3893 78.456 82.2005C79.5608 82.0118 80.6027 81.5556 81.4908 80.8719C82.3789 80.1881 83.0862 79.2977 83.5513 78.2779C84.0163 77.2581 84.225 76.1401 84.159 75.0213C84.0929 73.9024 83.7543 72.8166 83.1725 71.8587Z" fill="#414042"/>
<path d="M40.9166 64.2296C42.1189 64.8857 43.4897 65.1676 44.8533 65.0392C46.2169 64.9107 47.511 64.3778 48.5696 63.5088C49.6282 62.6397 50.4031 61.4742 50.7946 60.1618C51.1862 58.8493 51.1767 57.4498 50.7673 56.1428C50.2485 54.4761 50.0636 52.7235 50.2235 50.9853C50.3833 49.2472 50.8845 47.5576 51.6986 46.0136C52.5127 44.4696 53.6235 43.1014 54.9674 41.9874C56.3113 40.8735 57.8618 40.0359 59.53 39.5224C60.8239 39.1171 61.9689 38.3382 62.8211 37.2837C63.6732 36.2291 64.1945 34.9461 64.3191 33.596C64.4439 32.2459 64.1665 30.8891 63.5218 29.6964C62.8772 28.5036 61.8941 27.5281 60.6965 26.8927C59.4987 26.2573 58.1398 25.9904 56.7908 26.1255C55.4417 26.2606 54.1628 26.7917 53.1148 27.6521C52.0669 28.5123 51.2968 29.6634 50.9015 30.9603C50.5063 32.2572 50.5034 33.6421 50.8933 34.9406C51.917 38.2929 51.5708 41.9143 49.9307 45.012C48.2906 48.1097 45.4901 50.4315 42.1422 51.4693C40.8205 51.8526 39.6443 52.6237 38.7659 53.683C37.8874 54.7423 37.3472 56.0409 37.2151 57.4107C37.0832 58.7805 37.3654 60.1583 38.0253 61.3659C38.6853 62.5735 39.6925 63.5551 40.9166 64.1837V64.2296Z" fill="#414042"/>
<path d="M58.6024 63.107C57.6886 63.139 56.7904 63.3531 55.9604 63.7367C55.1304 64.1202 54.3852 64.6655 53.7686 65.3406C51.3761 67.8995 48.0678 69.4071 44.567 69.5338C41.0662 69.6604 37.6575 68.3958 35.0864 66.0164C34.4221 65.3931 33.6406 64.908 32.7871 64.5895C31.9338 64.2709 31.0255 64.1252 30.1153 64.1608C28.9949 64.2136 27.9043 64.54 26.939 65.1112C25.9736 65.6824 25.1629 66.4812 24.5773 67.4379C23.9917 68.3946 23.6492 69.4801 23.5796 70.5996C23.5101 71.7191 23.7156 72.8386 24.1782 73.8605C24.6409 74.8823 25.3465 75.7753 26.2337 76.4617C27.1209 77.1481 28.1625 77.6068 29.2678 77.7979C30.3731 77.9891 31.5084 77.9068 32.5745 77.5583C33.6407 77.2098 34.6053 76.6056 35.3842 75.7985C36.5691 74.5156 37.9954 73.4791 39.5814 72.7484C41.1675 72.0177 42.8821 71.6069 44.6271 71.54C46.3721 71.473 48.1133 71.7508 49.7507 72.3577C51.3882 72.9647 52.8898 73.8887 54.1695 75.0769C55.0027 75.8297 56.0076 76.3669 57.0964 76.6414C58.1852 76.916 59.3247 76.9197 60.4152 76.652C61.5058 76.3844 62.514 75.8536 63.3519 75.1061C64.1899 74.3587 64.8319 73.4172 65.2219 72.3642C65.6119 71.3112 65.7379 70.1787 65.589 69.0657C65.44 67.9528 65.0206 66.8933 64.3674 65.9799C63.7143 65.0665 62.8474 64.3271 61.8423 63.8262C60.8373 63.3254 59.7249 63.0784 58.6024 63.107Z" fill="#414042"/>
</svg>
